<svg width="120" height="120" viewBox="0 0 120 120" fill="none" xmlns="http://www.w3.org/2000/svg">
<rect width="120" height="120" fill="#FF4B32"/>
<path d="M78.0909 51H72.4545C72.1212 49.3788 71.5379 47.9545 70.7045 46.7273C69.8864 45.5 68.8864 44.4697 67.7045 43.6364C66.5379 42.7879 65.2424 42.1515 63.8182 41.7273C62.3939 41.303 60.9091 41.0909 59.3636 41.0909C56.5455 41.0909 53.9924 41.803 51.7045 43.2273C49.4318 44.6515 47.6212 46.75 46.2727 49.5227C44.9394 52.2955 44.2727 55.697 44.2727 59.7273C44.2727 63.7576 44.9394 67.1591 46.2727 69.9318C47.6212 72.7045 49.4318 74.803 51.7045 76.2273C53.9924 77.6515 56.5455 78.3636 59.3636 78.3636C60.9091 78.3636 62.3939 78.1515 63.8182 77.7273C65.2424 77.303 66.5379 76.6742 67.7045 75.8409C68.8864 74.9924 69.8864 73.9545 70.7045 72.7273C71.5379 71.4848 72.1212 70.0606 72.4545 68.4545H78.0909C77.6667 70.8333 76.8939 72.9621 75.7727 74.8409C74.6515 76.7197 73.2576 78.3182 71.5909 79.6364C69.9242 80.9394 68.053 81.9318 65.9773 82.6136C63.9167 83.2955 61.7121 83.6364 59.3636 83.6364C55.3939 83.6364 51.8636 82.6667 48.7727 80.7273C45.6818 78.7879 43.25 76.0303 41.4773 72.4545C39.7045 68.8788 38.8182 64.6364 38.8182 59.7273C38.8182 54.8182 39.7045 50.5758 41.4773 47C43.25 43.4242 45.6818 40.6667 48.7727 38.7273C51.8636 36.7879 55.3939 35.8182 59.3636 35.8182C61.7121 35.8182 63.9167 36.1591 65.9773 36.8409C68.053 37.5227 69.9242 38.5227 71.5909 39.8409C73.2576 41.1439 74.6515 42.7348 75.7727 44.6136C76.8939 46.4773 77.6667 48.6061 78.0909 51Z" fill="#FFE164"/>
</svg>
