<svg width="32" height="32" viewBox="0 0 32 32" fill="none" xmlns="http://www.w3.org/2000/svg">
<path d="M31.6872 0.403868C31.5748 0.280361 31.4385 0.180926 31.2866 0.111573C31.1347 0.0422186 30.9703 0.00438549 30.8033 0.000359142C30.6364 -0.00366721 30.4703 0.0261968 30.3152 0.0881468C30.1602 0.150097 30.0192 0.242846 29.901 0.360791L28.9495 1.30771C28.8342 1.42311 28.7694 1.57957 28.7694 1.74271C28.7694 1.90585 28.8342 2.06231 28.9495 2.17771L29.8218 3.04848C29.879 3.10592 29.9469 3.15151 30.0218 3.18261C30.0966 3.21372 30.1769 3.22973 30.2579 3.22973C30.339 3.22973 30.4192 3.21372 30.4941 3.18261C30.5689 3.15151 30.6369 3.10592 30.6941 3.04848L31.6218 2.1254C32.091 1.65694 32.1349 0.893866 31.6872 0.403868ZM27.0256 3.23078L13.1395 17.0923C13.0553 17.1761 12.9941 17.2802 12.9618 17.3946L12.3195 19.3077C12.3041 19.3596 12.3031 19.4147 12.3164 19.4671C12.3297 19.5196 12.3569 19.5675 12.3952 19.6058C12.4335 19.6441 12.4814 19.6713 12.5339 19.6847C12.5864 19.698 12.6415 19.6969 12.6934 19.6815L14.6049 19.0392C14.7193 19.0069 14.8234 18.9457 14.9072 18.8615L28.7687 4.97385C28.897 4.84424 28.9689 4.66927 28.9689 4.48693C28.9689 4.3046 28.897 4.12963 28.7687 4.00001L28.0033 3.23078C27.8736 3.10137 27.6978 3.0287 27.5145 3.0287C27.3312 3.0287 27.1554 3.10137 27.0256 3.23078Z" fill="#FFE164"/>
<path d="M26.0261 11.2049L16.65 20.5994C16.2876 20.9627 15.8422 21.2323 15.3523 21.3848L13.36 22.0518C12.8871 22.1853 12.3873 22.1903 11.9118 22.0663C11.4364 21.9424 11.0027 21.6939 10.6553 21.3465C10.3078 20.9991 10.0594 20.5653 9.93538 20.0899C9.81141 19.6145 9.81645 19.1146 9.94997 18.6418L10.6169 16.6495C10.769 16.1597 11.038 15.7143 11.4007 15.3518L20.7953 5.97411C20.8814 5.88809 20.9401 5.77846 20.9639 5.6591C20.9877 5.53973 20.9756 5.41599 20.9291 5.30352C20.8826 5.19104 20.8037 5.09489 20.7026 5.02722C20.6014 4.95955 20.4824 4.9234 20.3607 4.92334H4.30768C3.16521 4.92334 2.06954 5.37718 1.26169 6.18503C0.453844 6.99288 0 8.08855 0 9.23102V27.6925C0 28.835 0.453844 29.9306 1.26169 30.7385C2.06954 31.5463 3.16521 32.0002 4.30768 32.0002H22.7692C23.9116 32.0002 25.0073 31.5463 25.8152 30.7385C26.623 29.9306 27.0768 28.835 27.0768 27.6925V11.6395C27.0768 11.5178 27.0406 11.3988 26.973 11.2976C26.9053 11.1965 26.8091 11.1176 26.6967 11.0711C26.5842 11.0246 26.4604 11.0125 26.3411 11.0363C26.2217 11.0601 26.1121 11.1187 26.0261 11.2049Z" fill="#FFE164"/>
</svg>
