<svg width="32" height="32" viewBox="0 0 32 32" fill="none" xmlns="http://www.w3.org/2000/svg">
<path d="M27.7982 16.4545H21.9235V15.5455H27.7982H29.9541L28.5616 13.8996L24.5199 9.12213C24.4575 9.04092 24.4056 8.9076 24.4074 8.74582C24.4092 8.57942 24.467 8.44692 24.5312 8.37104C24.5617 8.33498 24.5888 8.31689 24.6059 8.30837C24.6224 8.30013 24.6326 8.29914 24.6375 8.29906C24.6423 8.29899 24.6516 8.29966 24.6669 8.30675C24.6818 8.31364 24.7056 8.3283 24.7333 8.35789L30.8762 15.6175C30.9416 15.6949 31 15.8306 31 16C31 16.1693 30.9417 16.3048 30.8764 16.3822C30.8763 16.3823 30.8763 16.3824 30.8762 16.3825L24.7225 23.655L24.7143 23.6646L24.7065 23.6744C24.6749 23.7137 24.646 23.7338 24.6275 23.7434C24.6098 23.7525 24.599 23.7535 24.5942 23.7536C24.5894 23.7537 24.5794 23.753 24.5631 23.7451C24.5458 23.7368 24.5179 23.7186 24.4866 23.6816C24.4551 23.6443 24.4229 23.5911 24.399 23.5216C24.3751 23.4522 24.3619 23.3734 24.3628 23.2913C24.3637 23.2091 24.3786 23.1313 24.4037 23.0635C24.4287 22.9957 24.4613 22.9447 24.4926 22.9096L24.501 22.9001L24.5093 22.8904L28.5616 18.1004L29.9541 16.4545H27.7982ZM8.21265 14.3255C7.81644 14.7938 7.61554 15.398 7.61554 16C7.61554 16.602 7.81644 17.2062 8.21265 17.6745C8.61312 18.1477 9.19564 18.4545 9.84633 18.4545H19.9235V26.9082C19.9224 28.042 19.5394 29.1021 18.897 29.8614C18.2588 30.6156 17.4328 30.999 16.6144 31H4.30903C3.49067 30.999 2.66463 30.6156 2.02645 29.8614C1.3841 29.1022 1.00112 28.0422 1 26.9086V5.09137C1.00112 3.95775 1.3841 2.89776 2.02645 2.13864C2.66449 1.3846 3.49029 1.00121 4.30847 1H16.0003C17.804 1 19.9235 2.76566 19.9235 5.09091V13.5455H9.84633C9.19565 13.5455 8.61312 13.8523 8.21265 14.3255Z" fill="#272531" fill-opacity="0.15" stroke="white" stroke-width="2"/>
</svg>
